PathFileType	4	(X/Y/Z)	D:\TRACE\spotREDO_2-26-24\spot_justArm_Motion_1_1-v60.trc
DataRate	CameraRate	NumFrames	NumMarkers	Units	OrigDataRate	OrigDataStartFrame	OrigNumFrames
100.00	100.00	      28	9	mm	100.00	3501	      7000
Frame#	Time	front left toe			Front right toe			aft left toe			aft right toe			Arm			FL body			FR body			AL Body			AR Body			
		X1	Y1	Z1	X2	Y2	Z2	X3	Y3	Z3	X4	Y4	Z4	X5	Y5	Z5	X6	Y6	Z6	X7	Y7	Z7	X8	Y8	Z8	X9	Y9	Z9	

3501	35.000	-368.34647	23.53781	-30.73039	64.21845	24.71155	-150.20361	-238.61305	5.32367	556.90759	199.15247	9.99543	450.85242	-61.04018	698.05756	-756.41327	-225.40704	557.46295	-122.94407	-73.23061	563.37488	-158.96674	-30.37948	536.66547	738.45984	115.16272	538.80328	707.13672	
3502	35.010	-369.27322	23.36700	-30.23655	63.49266	24.96879	-150.09035	-239.48529	5.41320	556.87634	198.33031	10.14627	450.93637	-61.77517	698.18512	-756.40625	-226.58002	557.44855	-123.14643	-73.91395	563.25330	-158.60229	-31.29475	536.74945	738.48065	114.06990	538.86310	706.98358	
3503	35.020	-370.53946	23.62890	-30.43218	62.63615	24.69419	-150.32307	-240.55872	5.54868	556.77509	197.00583	10.17739	450.76132	-62.70317	698.44031	-756.67938	-227.92809	557.58978	-123.07469	-74.97337	563.21973	-158.70349	-32.51577	536.87219	738.35461	113.04887	538.90662	706.97723	
3504	35.030	-370.99921	23.34698	-30.43946	61.72921	24.89582	-150.29466	-241.46251	5.73788	556.74408	196.28328	10.30293	450.70697	-63.36905	698.46838	-756.71887	-228.76796	557.46570	-123.14879	-76.43135	563.35144	-158.99060	-33.72700	536.86127	738.32892	111.71594	539.06415	706.93738	
3505	35.040	-372.06625	23.34643	-30.46716	60.72645	24.73508	-150.25896	-242.01875	5.72603	556.84833	195.53569	10.53292	450.74219	-64.03901	698.45477	-756.69702	-229.90176	557.47778	-123.17648	-77.74030	563.43060	-159.14825	-34.95679	536.85712	738.21082	110.83759	539.22607	706.88794	
3506	35.050	-372.82349	23.39018	-30.38936	59.91115	24.59165	-150.29089	-243.15511	6.03461	556.69922	194.13385	10.36876	450.61606	-64.86280	698.44928	-756.51740	-231.09735	557.54028	-123.21300	-78.55179	563.62555	-159.14236	-35.83957	536.92944	738.09967	109.70074	539.28064	706.87714	
3507	35.060	-373.68390	23.29502	-30.36275	61.30569	25.48922	-149.41730	-244.04674	6.30541	556.62524	193.86565	11.00820	450.66464	-65.75458	698.51666	-756.62213	-232.05310	557.70599	-123.35484	-79.29197	563.59320	-158.93797	-37.18549	537.03827	738.07452	108.78791	539.43073	706.76465	
3508	35.070	-374.52109	23.14564	-30.86859	58.15208	24.43785	-150.52681	-244.61749	6.28328	556.71466	192.86993	11.05032	450.47052	-66.59907	698.48615	-756.72424	-233.27365	557.49408	-123.44716	-80.46508	563.52106	-158.95389	-38.18456	537.20734	738.00842	107.83595	539.51239	706.71509	
3509	35.080	-375.22137	23.03766	-30.53872	57.09085	24.28580	-150.83649	-245.81250	6.70218	556.60242	191.57043	10.98888	450.47018	-67.20032	698.44769	-756.75061	-234.38290	557.33374	-123.31126	-82.12119	563.59534	-159.40736	-39.27108	537.30432	737.88092	106.94708	539.67804	706.56824	
3510	35.090	-376.41901	23.21700	-30.72434	56.64788	24.15474	-150.66228	-246.72604	6.84766	556.40039	191.28087	11.27121	450.53171	-68.00554	698.40295	-756.91058	-235.43411	557.53345	-123.49662	-83.15102	563.59277	-159.59312	-40.23816	537.42432	737.86902	105.93946	539.76379	706.38635	
3511	35.100	-377.06766	23.11272	-30.73618	55.48682	24.18742	-150.86009	-247.16228	6.90617	556.49664	190.52118	11.79957	450.49472	-68.73705	698.31866	-757.18182	-236.44911	557.62433	-123.70658	-83.95166	563.65338	-159.58038	-41.38204	537.48749	737.89838	104.77901	539.82593	706.29675	
3512	35.110	-377.94449	23.00512	-30.78096	54.65410	24.30488	-150.85646	-248.27548	7.23221	556.54657	189.35051	11.67838	450.23969	-69.71371	698.22217	-757.51746	-237.56268	557.51349	-123.74708	-85.08128	563.87836	-159.60008	-42.30495	537.52753	737.76984	103.83512	540.04932	706.18036	
3513	35.120	-378.63901	22.99504	-30.85197	54.14508	24.30534	-150.84544	-249.02570	7.24269	556.57135	188.60898	11.64907	450.19745	-70.35516	698.08350	-757.65088	-238.71895	557.35596	-123.90815	-86.21593	563.93732	-159.69463	-43.36715	537.61755	737.75793	102.72729	540.20532	706.16998	
3514	35.130	-379.23932	22.84557	-30.87286	53.42337	24.20541	-150.82858	-249.56958	7.32947	556.37885	188.22592	12.05672	450.31332	-71.23064	698.18933	-757.77698	-239.75615	557.29346	-124.06699	-87.01955	563.82953	-159.48024	-44.89234	537.82672	737.71301	101.91849	540.12518	706.09094	
3515	35.140	-380.36191	22.96226	-31.03646	52.75929	24.03074	-150.91560	-250.62097	7.64161	556.34076	186.91286	12.27347	450.24109	-72.19794	698.24689	-757.98956	-240.54353	557.34967	-124.03662	-88.18120	563.91638	-159.60066	-45.82698	537.87134	737.54449	100.61860	540.26526	706.04974	
3516	35.150	-381.32587	23.03880	-31.14456	51.99041	23.99509	-150.96236	-251.26625	7.76383	556.28186	186.29117	12.46119	450.14746	-73.17393	698.31287	-758.21533	-241.70747	557.47266	-124.08759	-89.27264	564.02197	-160.09140	-46.94700	537.90448	737.31134	99.99558	540.38293	706.04620	
3517	35.160	-381.62088	22.85529	-31.13278	50.99879	24.05595	-150.97844	-251.96890	7.86960	556.19543	185.66701	12.34715	450.07596	-73.72404	698.36517	-758.24274	-242.69812	557.48022	-124.35116	-90.35437	564.07745	-160.30127	-47.84405	538.04944	737.12732	98.78168	540.58307	705.87964	
3518	35.170	-382.45703	22.84152	-31.10155	51.74989	24.66586	-150.44530	-252.82349	8.04793	556.16003	184.71164	12.50031	450.17191	-74.70081	698.33765	-758.33649	-243.62416	557.34467	-124.37827	-91.44037	564.19141	-160.33394	-48.95359	538.19409	737.05475	97.97533	540.74359	705.65240	
3519	35.180	-383.10510	22.68108	-31.18806	49.36037	23.75680	-151.39107	-253.41396	8.25611	556.07281	183.93446	12.89775	450.03259	-75.41951	698.22766	-758.29352	-244.84373	557.33673	-124.53001	-92.37022	564.26593	-160.34991	-49.85844	538.31592	736.91595	96.94360	540.97412	705.51141	
3520	35.190	-383.88565	22.70042	-31.25414	48.71839	23.68357	-151.50346	-254.14052	8.50457	555.95709	183.63635	13.31471	449.96051	-76.21805	698.19781	-758.49384	-245.64665	557.17090	-124.62254	-93.34527	564.29950	-160.45943	-50.98898	538.32593	737.05927	96.44555	541.07385	705.37213	
3521	35.200	-384.64798	22.63637	-31.29008	48.14848	23.69818	-151.57574	-254.59737	8.61171	556.03302	183.13577	13.46776	449.88901	-76.89790	698.18774	-758.50635	-246.61853	557.24152	-124.83058	-94.56213	564.32123	-160.66997	-52.17383	538.36060	737.02802	95.26924	541.25592	705.34253	
3522	35.210	-385.10605	22.60687	-31.35151	47.71252	23.74689	-151.62048	-255.42046	8.97319	556.03479	181.96585	13.43716	449.76556	-77.85574	698.22229	-758.68903	-247.66412	557.12189	-124.89751	-95.75466	564.34668	-160.87096	-53.09624	538.53223	736.67401	94.40714	541.38062	705.11639	
3523	35.220	-385.85867	22.59343	-31.53450	46.80747	23.68268	-151.68718	-256.14310	9.12720	555.83942	181.31609	13.75391	449.74344	-78.46114	698.00739	-758.60321	-248.69814	557.10254	-124.91143	-96.59182	564.27802	-160.83105	-54.29018	538.84125	736.32166	91.53532	542.32001	705.45856	
3524	35.230	-386.61920	22.55796	-31.57245	46.22643	23.57358	-151.60243	-256.71655	9.32352	555.82721	181.04582	14.21508	449.70218	-79.24136	697.57751	-758.87543	-249.58623	556.95166	-125.15053	-97.07574	564.09351	-160.56558	-55.08040	538.82330	736.47113	89.95644	542.59125	705.47595	
3525	35.240	-387.16980	22.50578	-31.47329	45.72799	23.54194	-151.61032	-257.47092	9.50288	555.65790	180.34096	14.36874	449.73325	-80.27005	697.42407	-759.28119	-250.53531	556.77313	-125.35272	-98.09634	564.06995	-160.82407	-56.29885	538.96021	736.31567	89.08685	542.65100	705.42523	
3526	35.250	-387.70789	22.18784	-31.50370	45.11824	23.46870	-151.81456	-258.07971	9.69944	555.58765	179.32655	14.20885	449.55267	-81.45031	697.18225	-759.11206	-251.38379	556.66064	-125.38213	-99.29931	564.09650	-161.22812	-57.34377	539.11377	736.31012	87.84180	542.86200	705.25885	
3527	35.260	-388.02429	22.02747	-31.64615	44.54222	23.50155	-151.91727	-258.43677	9.83498	555.57666	179.07135	14.49909	449.60461	-82.20349	696.89856	-759.11438	-252.55714	556.50336	-125.45291	-100.24174	564.05548	-161.29205	-58.43461	539.34753	736.20459	87.05671	543.10016	705.15234	
3528	35.270	-388.79047	22.20482	-31.74476	43.84261	23.67138	-151.92751	-259.00302	10.08884	555.63824	178.52356	15.08276	449.51743	-83.11266	696.44153	-759.13904	-253.36372	556.39905	-125.51646	-101.41257	564.14429	-161.36920	-59.29493	539.42200	736.14789	85.85805	543.44110	705.04413	
